<svg width="20" height="19" viewBox="0 0 20 19" fill="none" xmlns="http://www.w3.org/2000/svg">
<path fill-rule="evenodd" clip-rule="evenodd" d="M15.4891 18.9833V12.3018C15.4891 10.9306 14.9442 9.55947 13.3456 9.55947C12.6843 9.58574 12.0605 9.87356 11.6114 10.3596C11.1623 10.8457 10.9246 11.4902 10.9506 12.1515C10.9506 12.2116 10.9567 12.2717 10.9627 12.3367V18.9881H6.80082V6.61985H10.9555V8.40359C11.3838 7.74098 11.9761 7.2003 12.675 6.83403C13.3738 6.46776 14.1555 6.28833 14.9442 6.31313C16.716 6.31313 19.746 7.2056 19.746 12.0372V18.9941H15.4891V18.9833ZM2.64006 4.93231C2.22186 4.89134 1.82455 4.7299 1.4963 4.46758C1.16805 4.20525 0.923 3.85334 0.790837 3.45448C0.658674 3.05563 0.645117 2.62699 0.751779 2.22057C0.858442 1.81415 1.08076 1.44739 1.39175 1.16482C1.70275 0.882254 2.08903 0.695998 2.5038 0.628652C2.91857 0.561306 3.34396 0.615774 3.72839 0.785425C4.11283 0.955075 4.43981 1.23262 4.6696 1.58441C4.89939 1.9362 5.02212 2.34712 5.02296 2.76731C4.99335 3.37011 4.72588 3.93658 4.27917 4.34244C3.83246 4.74831 3.24298 4.96043 2.64006 4.93231ZM4.75352 18.9833H0.496582V6.61383H4.75352V18.9833Z" fill="black"/>
</svg>